<svg width="860" height="860" viewBox="0 0 860 860" fill="none" xmlns="http://www.w3.org/2000/svg">
<g filter="url(#filter0_d_932_352)">
<circle cx="430" cy="401" r="389" fill="url(#paint0_linear_932_352)"/>
<circle cx="430" cy="401" r="391.5" stroke="url(#paint1_linear_932_352)" stroke-width="5"/>
</g>
<path d="M714.496 384.496C722.996 414.496 756.496 397.496 754.496 384.496C758.092 344.493 730.997 279.497 717 252C704.6 222.4 697 219.5 690.5 215.996C660.9 206.796 646.325 227.749 645.496 239.496C643.096 273.496 673 281.996 685.496 278.996C704.696 316.996 712.829 365.163 714.496 384.496Z" fill="white"/>
<g filter="url(#filter1_d_932_352)">
<path d="M266.5 577.5C243.3 553.9 215.5 567.666 204.5 577.5L199 572.5L247.5 507.5C252.167 515.833 264.6 535 277 545C289.4 555 301.167 549.167 305.5 545L357 474C362.333 472.834 376.2 473.2 389 484C405 497.5 432.5 495.5 447 484C458.6 474.8 473.5 473.5 479.5 474C479.5 474 500 513 505 516C510 519 514.5 519.5 517 519.5C519.5 519.5 524.5 519.5 529 516C533.5 512.5 541.5 502.5 541.5 502.5C553.5 504.001 578.5 494.5 583 487C587.5 479.5 624 464.5 643 483C658.2 497.8 678.667 501.167 687 501C679.8 525 655.667 562.333 644.5 578C639 563.5 598 558 578.5 577C559 596 526.5 589.5 511 575.5C495.5 561.5 467 563 452.5 575.5C440.9 585.5 426.667 588 421 588C416.667 589 403 587.3 383 572.5C363 557.7 341.333 566.333 333 572.5C320.5 584 289.7 601.1 266.5 577.5Z" fill="#006496"/>
</g>
<g filter="url(#filter2_d_932_352)">
<path d="M659.5 437.5C673.9 451.9 698.833 449.833 709.5 447L694.5 498.5C690 499.667 678.5 500.8 668.5 496C658.5 491.2 646 481.5 640.5 477.5C628.921 469.079 600.9 472.7 588.5 487.5C576.1 502.3 555 502.5 545.5 502L602.5 421.5C611.3 418.7 620.833 418 624.5 418C630.167 418.5 645.1 423.1 659.5 437.5Z" fill="#A7FCFF"/>
<path d="M659.5 437.5C673.9 451.9 698.833 449.833 709.5 447L694.5 498.5C690 499.667 678.5 500.8 668.5 496C658.5 491.2 646 481.5 640.5 477.5C628.921 469.079 600.9 472.7 588.5 487.5C576.1 502.3 555 502.5 545.5 502L602.5 421.5C611.3 418.7 620.833 418 624.5 418C630.167 418.5 645.1 423.1 659.5 437.5Z" stroke="black"/>
</g>
<g filter="url(#filter3_d_932_352)">
<path d="M449.5 484.5C465.1 472.9 480 472 485.5 473L472 446L468 454C460.597 465 443.532 486.5 434.5 484.5C425.468 482.499 420.737 477.666 419.5 475.5L394 427C383 442.333 361.2 473 362 473C363 473 370 472 377.5 474C383.5 475.6 401.333 487 409.5 492.5C416.333 494.667 433.9 496.1 449.5 484.5Z" fill="#A7FCFF"/>
<path d="M201.5 445C187.1 453.8 161.833 449.333 151 446L161 486.5L170.5 497L201.5 445Z" fill="#A7FCFF"/>
<path d="M449.5 484.5C465.1 472.9 480 472 485.5 473L472 446L468 454C460.597 465 443.532 486.5 434.5 484.5C425.468 482.499 420.737 477.666 419.5 475.5L394 427C383 442.333 361.2 473 362 473C363 473 370 472 377.5 474C383.5 475.6 401.333 487 409.5 492.5C416.333 494.667 433.9 496.1 449.5 484.5Z" stroke="black"/>
<path d="M201.5 445C187.1 453.8 161.833 449.333 151 446L161 486.5L170.5 497L201.5 445Z" stroke="black"/>
</g>
<path d="M170.5 496.883L161 485.883V494.383L192 534.883L249 451.883L296 515.883L397 373.383L436 446.383L473 394.383L522 485.883C566.667 421.217 655.9 291.783 655.5 291.383C641.5 286.983 631.333 270.55 628 262.883L526.5 405.383L473 305.5L436 364L397 291.383L381 316L367.5 337.5L296 439.383C283.833 423.55 258.6 390.283 255 383.883C251.4 377.483 242.833 381.216 239 383.883L170.5 496.883Z" fill="white"/>
<path d="M636 210.383C395.2 -16.8167 144.5 227.882 144.5 383.883C145.5 397.883 117 409.383 106 383.883C151.6 5.48331 563.5 28.3827 667.5 188.882L636 210.383Z" fill="white"/>
<g filter="url(#filter4_d_932_352)">
<path d="M752 447.5C683.5 833 163.5 807.5 107 445.999C107 429 136 411.499 148 441.499C210.5 768 650.9 779.098 712.5 441.499C717 422 751.2 418.3 752 447.5Z" fill="#05446D"/>
</g>
<path d="M107.259 448.5C103.76 425.5 136.659 413 146.259 441C182.76 728 624.76 815.5 712.26 441C718.26 421.5 749.06 416.2 752.26 447" stroke="#A7D9F4" stroke-width="8"/>
<defs>
<filter id="filter0_d_932_352" x="0.400002" y="0.400002" width="859.2" height="859.2" filterUnits="userSpaceOnUse" color-interpolation-filters="sRGB">
<feFlood flood-opacity="0" result="BackgroundImageFix"/>
<feColorMatrix in="SourceAlpha" type="matrix" values="0 0 0 0 0 0 0 0 0 0 0 0 0 0 0 0 0 0 127 0" result="hardAlpha"/>
<feOffset dy="29"/>
<feGaussianBlur stdDeviation="17.8"/>
<feComposite in2="hardAlpha" operator="out"/>
<feColorMatrix type="matrix" values="0 0 0 0 0.00784314 0 0 0 0 0.0588235 0 0 0 0 0.121569 0 0 0 1 0"/>
<feBlend mode="normal" in2="BackgroundImageFix" result="effect1_dropShadow_932_352"/>
<feBlend mode="normal" in="SourceGraphic" in2="effect1_dropShadow_932_352" result="shape"/>
</filter>
<filter id="filter1_d_932_352" x="195" y="473.547" width="496" height="124.779" filterUnits="userSpaceOnUse" color-interpolation-filters="sRGB">
<feFlood flood-opacity="0" result="BackgroundImageFix"/>
<feColorMatrix in="SourceAlpha" type="matrix" values="0 0 0 0 0 0 0 0 0 0 0 0 0 0 0 0 0 0 127 0" result="hardAlpha"/>
<feOffset dy="5"/>
<feGaussianBlur stdDeviation="2"/>
<feComposite in2="hardAlpha" operator="out"/>
<feColorMatrix type="matrix" values="0 0 0 0 0 0 0 0 0 0 0 0 0 0 0 0 0 0 0.5 0"/>
<feBlend mode="normal" in2="BackgroundImageFix" result="effect1_dropShadow_932_352"/>
<feBlend mode="normal" in="SourceGraphic" in2="effect1_dropShadow_932_352" result="shape"/>
</filter>
<filter id="filter2_d_932_352" x="538.5" y="418" width="172" height="98.1309" filterUnits="userSpaceOnUse" color-interpolation-filters="sRGB">
<feFlood flood-opacity="0" result="BackgroundImageFix"/>
<feColorMatrix in="SourceAlpha" type="matrix" values="0 0 0 0 0 0 0 0 0 0 0 0 0 0 0 0 0 0 127 0" result="hardAlpha"/>
<feOffset dx="-3" dy="10"/>
<feGaussianBlur stdDeviation="2"/>
<feComposite in2="hardAlpha" operator="out"/>
<feColorMatrix type="matrix" values="0 0 0 0 0 0 0 0 0 0 0 0 0 0 0 0 0 0 0.5 0"/>
<feBlend mode="normal" in2="BackgroundImageFix" result="effect1_dropShadow_932_352"/>
<feBlend mode="normal" in="SourceGraphic" in2="effect1_dropShadow_932_352" result="shape"/>
</filter>
<filter id="filter3_d_932_352" x="147" y="427" width="342.5" height="84" filterUnits="userSpaceOnUse" color-interpolation-filters="sRGB">
<feFlood flood-opacity="0" result="BackgroundImageFix"/>
<feColorMatrix in="SourceAlpha" type="matrix" values="0 0 0 0 0 0 0 0 0 0 0 0 0 0 0 0 0 0 127 0" result="hardAlpha"/>
<feOffset dy="10"/>
<feGaussianBlur stdDeviation="2"/>
<feComposite in2="hardAlpha" operator="out"/>
<feColorMatrix type="matrix" values="0 0 0 0 0 0 0 0 0 0 0 0 0 0 0 0 0 0 0.5 0"/>
<feBlend mode="normal" in2="BackgroundImageFix" result="effect1_dropShadow_932_352"/>
<feBlend mode="normal" in="SourceGraphic" in2="effect1_dropShadow_932_352" result="shape"/>
</filter>
<filter id="filter4_d_932_352" x="71.4" y="418.625" width="716.2" height="372.942" filterUnits="userSpaceOnUse" color-interpolation-filters="sRGB">
<feFlood flood-opacity="0" result="BackgroundImageFix"/>
<feColorMatrix in="SourceAlpha" type="matrix" values="0 0 0 0 0 0 0 0 0 0 0 0 0 0 0 0 0 0 127 0" result="hardAlpha"/>
<feOffset dy="29"/>
<feGaussianBlur stdDeviation="17.8"/>
<feComposite in2="hardAlpha" operator="out"/>
<feColorMatrix type="matrix" values="0 0 0 0 0.00784314 0 0 0 0 0.0588235 0 0 0 0 0.121569 0 0 0 1 0"/>
<feBlend mode="normal" in2="BackgroundImageFix" result="effect1_dropShadow_932_352"/>
<feBlend mode="normal" in="SourceGraphic" in2="effect1_dropShadow_932_352" result="shape"/>
</filter>
<linearGradient id="paint0_linear_932_352" x1="430" y1="12" x2="430" y2="790" gradientUnits="userSpaceOnUse">
<stop stop-color="#557790"/>
<stop offset="0.471178" stop-color="#132638"/>
<stop offset="1" stop-color="#031020"/>
</linearGradient>
<linearGradient id="paint1_linear_932_352" x1="430" y1="12" x2="430" y2="790" gradientUnits="userSpaceOnUse">
<stop stop-color="#E4F4FC"/>
<stop offset="0.48" stop-color="#101D31"/>
<stop offset="1" stop-color="#031020"/>
</linearGradient>
</defs>
</svg>
